STARTFONT 2.1
COMMENT Copyright (C) 1990-1991 EWT Consulting
COMMENT Portions Copyright (C) 1994-1995 Cronyx Ltd.
COMMENT Changes Copyright (C) 1996 by Andrey A. Chernov, Moscow, Russia.
COMMENT Modified by Serge Vakulenko, <vak@cronyx.ru>
COMMENT This software may be used, modified, copied, distributed, and sold,
COMMENT in both source and binary form provided that the copyright
COMMENT and these terms are retained. Under no circumstances is the author
COMMENT responsible for the proper functioning of this software, nor does
COMMENT the author assume any responsibility for damages incurred with its use.
COMMENT $XFree86: xc/fonts/bdf/cyrillic/crox4ho.bdf,v 3.2 1996/09/01 12:18:29 dawes Exp $
FONT -Cronyx-Helvetica-Medium-O-Normal--20-140-100-100-P-77-KOI8-R
SIZE 14 96 96
FONTBOUNDINGBOX 27 24 -1 -5
STARTPROPERTIES 19
DEFAULT_CHAR 32
FONT_ASCENT 19
FONT_DESCENT 5
SPACING "P"
FONTNAME_REGISTRY ""
FOUNDRY "Cronyx"
FAMILY_NAME "Helvetica"
WEIGHT_NAME "Medium"
SLANT "O"
SETWIDTH_NAME "Normal"
ADD_STYLE_NAME ""
AVERAGE_WIDTH 77
CHARSET_REGISTRY "KOI8"
CHARSET_ENCODING "R"
PIXEL_SIZE 20
POINT_SIZE 140
RESOLUTION_X 100
RESOLUTION_Y 100
COPYRIGHT "Copyright (C) 1990, 1991 EWT Consulting, Portions Copyright (C) 1994 Cronyx Ltd., Portions Copyright (C) 1996 by Andrey A. Chernov, Moscow, Russia."
ENDPROPERTIES
CHARS 224
STARTCHAR space
ENCODING 32
SWIDTH 208 0
DWIDTH 5 0
BBX 13 24 -1 -5
BITMAP
0000
0000
0000
0000
0000
0000
0000
0000
0000
0000
0000
0000
0000
0000
0000
0000
0000
0000
0000
0000
0000
0000
0000
0000
ENDCHAR
STARTCHAR exclam
ENCODING 33
SWIDTH 208 0
DWIDTH 5 0
BBX 13 24 -1 -5
BITMAP
0000
0000
0000
0000
0000
0060
00C0
00C0
00C0
0180
0180
0180
0300
0300
0300
0000
0000
0600
0C00
0000
0000
0000
0000
0000
ENDCHAR
STARTCHAR quotedbl
ENCODING 34
SWIDTH 291 0
DWIDTH 7 0
BBX 15 24 -1 -5
BITMAP
0000
0000
0000
0000
0000
00D8
01B0
01B0
01B0
0000
0000
0000
0000
0000
0000
0000
0000
0000
0000
0000
0000
0000
0000
0000
ENDCHAR
STARTCHAR numbersign
ENCODING 35
SWIDTH 416 0
DWIDTH 10 0
BBX 18 24 -1 -5
BITMAP
000000
000000
000000
000000
000000
001200
002400
002400
002400
01FC00
009000
009000
012000
012000
07F000
048000
048000
048000
090000
000000
000000
000000
000000
000000
ENDCHAR
STARTCHAR dollar
ENCODING 36
SWIDTH 416 0
DWIDTH 10 0
BBX 18 24 -1 -5
BITMAP
000000
000000
000000
001000
001000
003800
01FC00
01AC00
032000
074000
03C000
01F000
00F000
00B800
009800
193000
0D6000
0FE000
070000
020000
020000
000000
000000
000000
ENDCHAR
STARTCHAR percent
ENCODING 37
SWIDTH 625 0
DWIDTH 15 0
BBX 23 24 -1 -5
BITMAP
000000
000000
000000
000000
000000
007830
0198C0
0108C0
010980
033600
01E600
000C00
003000
006780
006CC0
019080
031080
031980
0C1E00
000000
000000
000000
000000
000000
ENDCHAR
STARTCHAR ampersand
ENCODING 38
SWIDTH 541 0
DWIDTH 13 0
BBX 21 24 -1 -5
BITMAP
000000
000000
000000
000000
000000
001800
007800
00CC00
00CC00
019800
00F000
00E180
03E300
077600
063E00
0C3800
0E3C00
07EE00
078E00
000000
000000
000000
000000
000000
ENDCHAR
STARTCHAR quoteright
ENCODING 39
SWIDTH 166 0
DWIDTH 4 0
BBX 12 24 -1 -5
BITMAP
0000
0000
0000
0000
0000
00C0
0180
0180
0180
0000
0000
0000
0000
0000
0000
0000
0000
0000
0000
0000
0000
0000
0000
0000
ENDCHAR
STARTCHAR parenleft
ENCODING 40
SWIDTH 250 0
DWIDTH 6 0
BBX 14 24 -1 -5
BITMAP
0000
0000
0000
0000
0000
0010
0060
00C0
00C0
0300
0300
0300
0600
0600
0600
0C00
0C00
0C00
1800
0C00
0C00
0C00
0400
0000
ENDCHAR
STARTCHAR parenright
ENCODING 41
SWIDTH 250 0
DWIDTH 6 0
BBX 14 24 -1 -5
BITMAP
0000
0000
0000
0000
0000
0080
0180
00C0
00C0
00C0
00C0
00C0
0180
0180
0180
0300
0300
0300
0600
0C00
0C00
3000
2000
0000
ENDCHAR
STARTCHAR asterisk
ENCODING 42
SWIDTH 291 0
DWIDTH 7 0
BBX 15 24 -1 -5
BITMAP
0000
0000
0000
0000
0000
0020
0150
01F0
00E0
03E0
02A0
0080
0000
0000
0000
0000
0000
0000
0000
0000
0000
0000
0000
0000
ENDCHAR
STARTCHAR plus
ENCODING 43
SWIDTH 458 0
DWIDTH 11 0
BBX 19 24 -1 -5
BITMAP
000000
000000
000000
000000
000000
000000
000000
001800
001800
003000
003000
03FF00
07FE00
006000
006000
00C000
00C000
000000
000000
000000
000000
000000
000000
000000
ENDCHAR
STARTCHAR comma
ENCODING 44
SWIDTH 208 0
DWIDTH 5 0
BBX 13 24 -1 -5
BITMAP
0000
0000
0000
0000
0000
0000
0000
0000
0000
0000
0000
0000
0000
0000
0000
0000
0000
0600
0C00
0400
0800
0000
0000
0000
ENDCHAR
STARTCHAR minus
ENCODING 45
SWIDTH 250 0
DWIDTH 6 0
BBX 14 24 -1 -5
BITMAP
0000
0000
0000
0000
0000
0000
0000
0000
0000
0000
0000
0000
0000
0FC0
0FC0
0000
0000
0000
0000
0000
0000
0000
0000
0000
ENDCHAR
STARTCHAR period
ENCODING 46
SWIDTH 208 0
DWIDTH 5 0
BBX 13 24 -1 -5
BITMAP
0000
0000
0000
0000
0000
0000
0000
0000
0000
0000
0000
0000
0000
0000
0000
0000
0000
0600
0C00
0000
0000
0000
0000
0000
ENDCHAR
STARTCHAR slash
ENCODING 47
SWIDTH 208 0
DWIDTH 5 0
BBX 13 24 -1 -5
BITMAP
0000
0000
0000
0000
0000
0030
0060
0060
0060
0180
0180
0180
0300
0600
0600
0C00
0C00
1800
3000
3000
3000
0000
0000
0000
ENDCHAR
STARTCHAR zero
ENCODING 48
SWIDTH 416 0
DWIDTH 10 0
BBX 18 24 -1 -5
BITMAP
000000
000000
000000
000000
000000
001C00
00FE00
00C600
018300
030600
030600
030600
060C00
060C00
060C00
0C1800
063000
07F000
038000
000000
000000
000000
000000
000000
ENDCHAR
STARTCHAR one
ENCODING 49
SWIDTH 416 0
DWIDTH 10 0
BBX 18 24 -1 -5
BITMAP
000000
000000
000000
000000
000000
000C00
003800
00F800
00F800
003000
003000
003000
006000
006000
006000
00C000
00C000
00C000
018000
000000
000000
000000
000000
000000
ENDCHAR
STARTCHAR two
ENCODING 50
SWIDTH 416 0
DWIDTH 10 0
BBX 18 24 -1 -5
BITMAP
000000
000000
000000
000000
000000
003E00
00FE00
01C700
018300
000600
000E00
001C00
00F000
01C000
038000
060000
0C0000
0FF800
1FF000
000000
000000
000000
000000
000000
ENDCHAR
STARTCHAR three
ENCODING 51
SWIDTH 416 0
DWIDTH 10 0
BBX 18 24 -1 -5
BITMAP
000000
000000
000000
000000
000000
001C00
00FE00
00C600
018300
030600
000C00
007800
00F800
001800
060C00
0C1800
063000
07F000
038000
000000
000000
000000
000000
000000
ENDCHAR
STARTCHAR four
ENCODING 52
SWIDTH 416 0
DWIDTH 10 0
BBX 18 24 -1 -5
BITMAP
000000
000000
000000
000000
000000
000E00
001C00
003C00
003C00
00D800
00D800
019800
033000
063000
07FC00
0FF800
006000
006000
00C000
000000
000000
000000
000000
000000
ENDCHAR
STARTCHAR five
ENCODING 53
SWIDTH 416 0
DWIDTH 10 0
BBX 18 24 -1 -5
BITMAP
000000
000000
000000
000000
000000
007F00
00FE00
00C000
00C000
030000
03F000
03FC00
061800
000C00
000C00
0C1800
0E3000
07F000
078000
000000
000000
000000
000000
000000
ENDCHAR
STARTCHAR six
ENCODING 54
SWIDTH 416 0
DWIDTH 10 0
BBX 18 24 -1 -5
BITMAP
000000
000000
000000
000000
000000
001C00
00FE00
00C600
018300
030000
037000
03FC00
071800
060C00
060C00
0C1800
063000
07F000
038000
000000
000000
000000
000000
000000
ENDCHAR
STARTCHAR seven
ENCODING 55
SWIDTH 416 0
DWIDTH 10 0
BBX 18 24 -1 -5
BITMAP
000000
000000
000000
000000
000000
00FF80
01FF00
000300
000300
000C00
000C00
001800
003000
006000
006000
00C000
018000
018000
030000
000000
000000
000000
000000
000000
ENDCHAR
STARTCHAR eight
ENCODING 56
SWIDTH 416 0
DWIDTH 10 0
BBX 18 24 -1 -5
BITMAP
000000
000000
000000
000000
000000
001C00
00FE00
00C600
018300
030600
018C00
00F800
03F800
031800
060C00
0C1800
063000
07F000
038000
000000
000000
000000
000000
000000
ENDCHAR
STARTCHAR nine
ENCODING 57
SWIDTH 416 0
DWIDTH 10 0
BBX 18 24 -1 -5
BITMAP
000000
000000
000000
000000
000000
001C00
00FE00
00C600
018300
030600
030600
018E00
03FC00
00EC00
000C00
0C1800
063000
07F000
038000
000000
000000
000000
000000
000000
ENDCHAR
STARTCHAR colon
ENCODING 58
SWIDTH 208 0
DWIDTH 5 0
BBX 13 24 -1 -5
BITMAP
0000
0000
0000
0000
0000
0000
0000
0000
0000
0180
0180
0000
0000
0000
0000
0000
0000
0600
0C00
0000
0000
0000
0000
0000
ENDCHAR
STARTCHAR semicolon
ENCODING 59
SWIDTH 208 0
DWIDTH 5 0
BBX 13 24 -1 -5
BITMAP
0000
0000
0000
0000
0000
0000
0000
0000
0000
0180
0180
0000
0000
0000
0000
0000
0000
0600
0C00
0400
0800
0000
0000
0000
ENDCHAR
STARTCHAR less
ENCODING 60
SWIDTH 458 0
DWIDTH 11 0
BBX 19 24 -1 -5
BITMAP
000000
000000
000000
000000
000000
000000
000000
000000
000180
000F00
003C00
00F000
078000
01E000
007800
003C00
000C00
000000
000000
000000
000000
000000
000000
000000
ENDCHAR
STARTCHAR equal
ENCODING 61
SWIDTH 458 0
DWIDTH 11 0
BBX 19 24 -1 -5
BITMAP
000000
000000
000000
000000
000000
000000
000000
000000
000000
03FF00
03FF00
000000
000000
07FE00
07FE00
000000
000000
000000
000000
000000
000000
000000
000000
000000
ENDCHAR
STARTCHAR greater
ENCODING 62
SWIDTH 458 0
DWIDTH 11 0
BBX 19 24 -1 -5
BITMAP
000000
000000
000000
000000
000000
000000
000000
000000
018000
03C000
00F000
003C00
003E00
007800
01E000
0F0000
0C0000
000000
000000
000000
000000
000000
000000
000000
ENDCHAR
STARTCHAR question
ENCODING 63
SWIDTH 416 0
DWIDTH 10 0
BBX 18 24 -1 -5
BITMAP
000000
000000
000000
000000
000000
001C00
00FE00
00C600
018300
030600
000C00
001C00
007000
006000
00C000
018000
000000
018000
030000
000000
000000
000000
000000
000000
ENDCHAR
STARTCHAR at
ENCODING 64
SWIDTH 791 0
DWIDTH 19 0
BBX 27 24 -1 -5
BITMAP
00000000
00000000
00000000
00000000
00000000
0007F000
00383800
00600C00
00C00600
01000400
03076600
020CC200
04318400
04318400
04630C00
08C63000
0C7BE000
04000000
0C000000
06008000
03838000
01FC0000
00000000
00000000
ENDCHAR
STARTCHAR A
ENCODING 65
SWIDTH 541 0
DWIDTH 13 0
BBX 21 24 -1 -5
BITMAP
000000
000000
000000
000000
000000
000E00
001C00
003600
003600
00C600
00C600
00C600
030600
03FE00
07FF00
0C0600
0C0600
180300
300600
000000
000000
000000
000000
000000
ENDCHAR
STARTCHAR B
ENCODING 66
SWIDTH 500 0
DWIDTH 12 0
BBX 20 24 -1 -5
BITMAP
000000
000000
000000
000000
000000
00FF00
01FF00
018380
018180
030300
030700
03FE00
07FC00
060E00
060600
0C0C00
0C1C00
0FF800
1FE000
000000
000000
000000
000000
000000
ENDCHAR
STARTCHAR C
ENCODING 67
SWIDTH 541 0
DWIDTH 13 0
BBX 21 24 -1 -5
BITMAP
000000
000000
000000
000000
000000
000F80
007FC0
00E0E0
00C060
030000
030000
030000
060000
060000
060000
060300
070700
03FE00
01F000
000000
000000
000000
000000
000000
ENDCHAR
STARTCHAR D
ENCODING 68
SWIDTH 541 0
DWIDTH 13 0
BBX 21 24 -1 -5
BITMAP
000000
000000
000000
000000
000000
00FE00
01FF00
018380
018180
030180
030180
030180
060300
060300
060300
0C0C00
0C1C00
0FF800
1FC000
000000
000000
000000
000000
000000
ENDCHAR
STARTCHAR E
ENCODING 69
SWIDTH 541 0
DWIDTH 13 0
BBX 21 24 -1 -5
BITMAP
000000
000000
000000
000000
000000
00FFE0
01FFC0
018000
018000
030000
030000
03FF00
07FE00
060000
060000
0C0000
0C0000
0FFE00
1FFC00
000000
000000
000000
000000
000000
ENDCHAR
STARTCHAR F
ENCODING 70
SWIDTH 500 0
DWIDTH 12 0
BBX 20 24 -1 -5
BITMAP
000000
000000
000000
000000
000000
00FFE0
01FFC0
018000
018000
030000
030000
03FF00
07FE00
060000
060000
0C0000
0C0000
0C0000
180000
000000
000000
000000
000000
000000
ENDCHAR
STARTCHAR G
ENCODING 71
SWIDTH 583 0
DWIDTH 14 0
BBX 22 24 -1 -5
BITMAP
000000
000000
000000
000000
000000
000F80
007FC0
00E0E0
00C060
030000
030000
030000
060780
060780
060180
060300
070700
03FF00
01F600
000000
000000
000000
000000
000000
ENDCHAR
STARTCHAR H
ENCODING 72
SWIDTH 583 0
DWIDTH 14 0
BBX 22 24 -1 -5
BITMAP
000000
000000
000000
000000
000000
00C030
018060
018060
018060
0300C0
0300C0
03FFC0
07FF80
060180
060180
0C0300
0C0300
0C0300
180600
000000
000000
000000
000000
000000
ENDCHAR
STARTCHAR I
ENCODING 73
SWIDTH 166 0
DWIDTH 4 0
BBX 12 24 -1 -5
BITMAP
0000
0000
0000
0000
0000
00C0
0180
0180
0180
0300
0300
0300
0600
0600
0600
0C00
0C00
0C00
1800
0000
0000
0000
0000
0000
ENDCHAR
STARTCHAR J
ENCODING 74
SWIDTH 375 0
DWIDTH 9 0
BBX 17 24 -1 -5
BITMAP
000000
000000
000000
000000
000000
000600
000C00
000C00
000C00
001800
001800
001800
003000
003000
003000
186000
1CE000
0FC000
060000
000000
000000
000000
000000
000000
ENDCHAR
STARTCHAR K
ENCODING 75
SWIDTH 500 0
DWIDTH 12 0
BBX 20 24 -1 -5
BITMAP
000000
000000
000000
000000
000000
00C1C0
018700
018E00
019C00
037000
03E000
03C000
07C000
06E000
067000
0C7000
0C3800
0C1C00
181C00
000000
000000
000000
000000
000000
ENDCHAR
STARTCHAR L
ENCODING 76
SWIDTH 416 0
DWIDTH 10 0
BBX 18 24 -1 -5
BITMAP
000000
000000
000000
000000
000000
00C000
018000
018000
018000
030000
030000
030000
060000
060000
060000
0C0000
0C0000
0FF800
1FF000
000000
000000
000000
000000
000000
ENDCHAR
STARTCHAR M
ENCODING 77
SWIDTH 666 0
DWIDTH 16 0
BBX 24 24 -1 -5
BITMAP
000000
000000
000000
000000
000000
00C00C
018018
01C038
01C038
03C0F0
03C0F0
0361B0
06C360
066660
066660
0C78C0
0C78C0
0C30C0
186180
000000
000000
000000
000000
000000
ENDCHAR
STARTCHAR N
ENCODING 78
SWIDTH 583 0
DWIDTH 14 0
BBX 22 24 -1 -5
BITMAP
000000
000000
000000
000000
000000
00E030
01E060
01E060
01F060
0370C0
0330C0
0338C0
063980
061980
061D80
0C1F00
0C0F00
0C0F00
180E00
000000
000000
000000
000000
000000
ENDCHAR
STARTCHAR O
ENCODING 79
SWIDTH 625 0
DWIDTH 15 0
BBX 23 24 -1 -5
BITMAP
000000
000000
000000
000000
000000
000F80
007FC0
00E0E0
00C060
030060
030060
030060
0600C0
0600C0
0600C0
060300
070700
03FE00
01F000
000000
000000
000000
000000
000000
ENDCHAR
STARTCHAR P
ENCODING 80
SWIDTH 500 0
DWIDTH 12 0
BBX 20 24 -1 -5
BITMAP
000000
000000
000000
000000
000000
00FF00
01FF80
018180
0180C0
030180
030180
030300
07FE00
07F800
060000
0C0000
0C0000
0C0000
180000
000000
000000
000000
000000
000000
ENDCHAR
STARTCHAR Q
ENCODING 81
SWIDTH 625 0
DWIDTH 15 0
BBX 23 24 -1 -5
BITMAP
000000
000000
000000
000000
000000
000F80
007FC0
00E0E0
00C060
030060
030060
030060
0600C0
0604C0
060EC0
060F00
070700
03FF80
01F200
000000
000000
000000
000000
000000
ENDCHAR
STARTCHAR R
ENCODING 82
SWIDTH 541 0
DWIDTH 13 0
BBX 21 24 -1 -5
BITMAP
000000
000000
000000
000000
000000
00FF00
01FF80
018180
0180C0
030180
030180
030300
07FE00
07FE00
060300
0C0600
0C0600
0C0600
180600
000000
000000
000000
000000
000000
ENDCHAR
STARTCHAR S
ENCODING 83
SWIDTH 500 0
DWIDTH 12 0
BBX 20 24 -1 -5
BITMAP
000000
000000
000000
000000
000000
001E00
00FF00
01C380
018180
038000
01E000
00FC00
007C00
000E00
000600
0C0C00
0E1C00
07F800
03C000
000000
000000
000000
000000
000000
ENDCHAR
STARTCHAR T
ENCODING 84
SWIDTH 500 0
DWIDTH 12 0
BBX 20 24 -1 -5
BITMAP
000000
000000
000000
000000
000000
01FFE0
03FFC0
001800
001800
003000
003000
003000
006000
006000
006000
00C000
00C000
00C000
018000
000000
000000
000000
000000
000000
ENDCHAR
STARTCHAR U
ENCODING 85
SWIDTH 541 0
DWIDTH 13 0
BBX 21 24 -1 -5
BITMAP
000000
000000
000000
000000
000000
00C060
0180C0
0180C0
0180C0
030180
030180
030180
060300
060300
060300
060C00
071C00
03F800
01C000
000000
000000
000000
000000
000000
ENDCHAR
STARTCHAR V
ENCODING 86
SWIDTH 541 0
DWIDTH 13 0
BBX 21 24 -1 -5
BITMAP
000000
000000
000000
000000
000000
018030
030060
0180C0
0180C0
018300
018300
018300
018C00
018C00
00D800
01B000
01F000
00E000
01C000
000000
000000
000000
000000
000000
ENDCHAR
STARTCHAR W
ENCODING 87
SWIDTH 750 0
DWIDTH 18 0
BBX 26 24 -1 -5
BITMAP
00000000
00000000
00000000
00000000
00000000
01818180
03030300
03030300
01878600
030F0C00
030F0C00
01999800
03333000
03333000
01E1E000
03C3C000
03C3C000
01818000
03030000
00000000
00000000
00000000
00000000
00000000
ENDCHAR
STARTCHAR X
ENCODING 88
SWIDTH 583 0
DWIDTH 14 0
BBX 22 24 -1 -5
BITMAP
000000
000000
000000
000000
000000
018018
038070
01C0E0
00E1C0
00E700
007E00
003C00
007800
00FC00
01CE00
070E00
0E0700
1C0380
300300
000000
000000
000000
000000
000000
ENDCHAR
STARTCHAR Y
ENCODING 89
SWIDTH 500 0
DWIDTH 12 0
BBX 20 24 -1 -5
BITMAP
000000
000000
000000
000000
000000
018060
0381C0
018180
00C300
01CE00
00CC00
007800
00F000
006000
006000
00C000
00C000
00C000
018000
000000
000000
000000
000000
000000
ENDCHAR
STARTCHAR Z
ENCODING 90
SWIDTH 500 0
DWIDTH 12 0
BBX 20 24 -1 -5
BITMAP
000000
000000
000000
000000
000000
00FFE0
01FFC0
0001C0
000380
000E00
001C00
003800
00E000
01C000
038000
0E0000
1C0000
1FFE00
3FFC00
000000
000000
000000
000000
000000
ENDCHAR
STARTCHAR bracketleft
ENCODING 91
SWIDTH 208 0
DWIDTH 5 0
BBX 13 24 -1 -5
BITMAP
0000
0000
0000
0000
00F0
00F0
0180
0180
0180
0300
0300
0300
0600
0600
0600
0C00
0C00
0C00
1800
1800
1800
3C00
3C00
0000
ENDCHAR
STARTCHAR backslash
ENCODING 92
SWIDTH 208 0
DWIDTH 5 0
BBX 13 24 -1 -5
BITMAP
0000
0000
0000
0000
0000
0180
0300
0300
0300
0300
0300
0300
0600
0300
0300
0600
0600
0300
0600
0600
0600
0000
0000
0000
ENDCHAR
STARTCHAR bracketright
ENCODING 93
SWIDTH 208 0
DWIDTH 5 0
BBX 13 24 -1 -5
BITMAP
0000
0000
0000
0000
01E0
01E0
00C0
00C0
00C0
0180
0180
0180
0300
0300
0300
0600
0600
0600
0C00
0C00
0C00
7800
7800
0000
ENDCHAR
STARTCHAR asciicircum
ENCODING 94
SWIDTH 375 0
DWIDTH 9 0
BBX 17 24 -1 -5
BITMAP
000000
000000
000000
000000
000000
003800
00D800
018C00
000000
000000
000000
000000
000000
000000
000000
000000
000000
000000
000000
000000
000000
000000
000000
000000
ENDCHAR
STARTCHAR underscore
ENCODING 95
SWIDTH 416 0
DWIDTH 10 0
BBX 18 24 -1 -5
BITMAP
000000
000000
000000
000000
000000
000000
000000
000000
000000
000000
000000
000000
000000
000000
000000
000000
000000
000000
000000
000000
3FF000
7FE000
000000
000000
ENDCHAR
STARTCHAR quoteleft
ENCODING 96
SWIDTH 250 0
DWIDTH 6 0
BBX 14 24 -1 -5
BITMAP
0000
0000
0000
0000
0000
00E0
0060
0020
0000
0000
0000
0000
0000
0000
0000
0000
0000
0000
0000
0000
0000
0000
0000
0000
ENDCHAR
STARTCHAR a
ENCODING 97
SWIDTH 416 0
DWIDTH 10 0
BBX 18 24 -1 -5
BITMAP
000000
000000
000000
000000
000000
000000
000000
000000
000000
00F000
01F800
039C00
001800
00F800
039800
0C3000
0C7000
0FF800
0F3000
000000
000000
000000
000000
000000
ENDCHAR
STARTCHAR b
ENCODING 98
SWIDTH 458 0
DWIDTH 11 0
BBX 19 24 -1 -5
BITMAP
000000
000000
000000
000000
000000
00C000
018000
018000
018000
037000
03FC00
038C00
060C00
060C00
060C00
0C1800
0E3000
0FF000
1B8000
000000
000000
000000
000000
000000
ENDCHAR
STARTCHAR c
ENCODING 99
SWIDTH 416 0
DWIDTH 10 0
BBX 18 24 -1 -5
BITMAP
000000
000000
000000
000000
000000
000000
000000
000000
000000
007000
01FC00
018C00
060C00
060000
060000
0C1800
063000
07F000
038000
000000
000000
000000
000000
000000
ENDCHAR
STARTCHAR d
ENCODING 100
SWIDTH 458 0
DWIDTH 11 0
BBX 19 24 -1 -5
BITMAP
000000
000000
000000
000000
000000
000180
000300
000300
000300
007600
01FE00
018E00
060C00
060C00
060C00
0C1800
063800
07F800
03B000
000000
000000
000000
000000
000000
ENDCHAR
STARTCHAR e
ENCODING 101
SWIDTH 458 0
DWIDTH 11 0
BBX 19 24 -1 -5
BITMAP
000000
000000
000000
000000
000000
000000
000000
000000
000000
007000
01FC00
018C00
060C00
07FC00
07FC00
0C0000
061800
07F000
038000
000000
000000
000000
000000
000000
ENDCHAR
STARTCHAR f
ENCODING 102
SWIDTH 166 0
DWIDTH 4 0
BBX 12 24 -1 -5
BITMAP
0000
0000
0000
0000
0000
0060
01C0
0180
0180
0780
0780
0300
0600
0600
0600
0C00
0C00
0C00
1800
0000
0000
0000
0000
0000
ENDCHAR
STARTCHAR g
ENCODING 103
SWIDTH 458 0
DWIDTH 11 0
BBX 19 24 -1 -5
BITMAP
000000
000000
000000
000000
000000
000000
000000
000000
000000
007600
01FE00
018E00
060C00
060C00
060C00
0C1800
063800
07F800
03B000
183000
0C6000
1FC000
070000
000000
ENDCHAR
STARTCHAR h
ENCODING 104
SWIDTH 458 0
DWIDTH 11 0
BBX 19 24 -1 -5
BITMAP
000000
000000
000000
000000
000000
00C000
018000
018000
018000
037000
03FC00
038C00
060C00
060C00
060C00
0C1800
0C1800
0C1800
183000
000000
000000
000000
000000
000000
ENDCHAR
STARTCHAR i
ENCODING 105
SWIDTH 166 0
DWIDTH 4 0
BBX 12 24 -1 -5
BITMAP
0000
0000
0000
0000
0000
00C0
0180
0000
0000
0300
0300
0300
0600
0600
0600
0C00
0C00
0C00
1800
0000
0000
0000
0000
0000
ENDCHAR
STARTCHAR j
ENCODING 106
SWIDTH 166 0
DWIDTH 4 0
BBX 12 24 -1 -5
BITMAP
0000
0000
0000
0000
0000
00C0
0180
0000
0000
0300
0300
0300
0600
0600
0600
0C00
0C00
0C00
1800
1800
1800
7000
6000
0000
ENDCHAR
STARTCHAR k
ENCODING 107
SWIDTH 375 0
DWIDTH 9 0
BBX 17 24 -1 -5
BITMAP
000000
000000
000000
000000
000000
00C000
018000
018000
018000
030C00
031800
033000
06C000
078000
07C000
0CC000
0C6000
0C3000
182000
000000
000000
000000
000000
000000
ENDCHAR
STARTCHAR l
ENCODING 108
SWIDTH 166 0
DWIDTH 4 0
BBX 12 24 -1 -5
BITMAP
0000
0000
0000
0000
0000
00C0
0180
0180
0180
0300
0300
0300
0600
0600
0600
0C00
0C00
0C00
1800
0000
0000
0000
0000
0000
ENDCHAR
STARTCHAR m
ENCODING 109
SWIDTH 666 0
DWIDTH 16 0
BBX 24 24 -1 -5
BITMAP
000000
000000
000000
000000
000000
000000
000000
000000
000000
0371C0
03FBE0
039E70
061860
061860
061860
0C30C0
0C30C0
0C30C0
186180
000000
000000
000000
000000
000000
ENDCHAR
STARTCHAR n
ENCODING 110
SWIDTH 458 0
DWIDTH 11 0
BBX 19 24 -1 -5
BITMAP
000000
000000
000000
000000
000000
000000
000000
000000
000000
037000
03FC00
038C00
060C00
060C00
060C00
0C1800
0C1800
0C1800
183000
000000
000000
000000
000000
000000
ENDCHAR
STARTCHAR o
ENCODING 111
SWIDTH 458 0
DWIDTH 11 0
BBX 19 24 -1 -5
BITMAP
000000
000000
000000
000000
000000
000000
000000
000000
000000
007000
01FC00
018C00
060C00
060C00
060C00
0C1800
063000
07F000
038000
000000
000000
000000
000000
000000
ENDCHAR
STARTCHAR p
ENCODING 112
SWIDTH 458 0
DWIDTH 11 0
BBX 19 24 -1 -5
BITMAP
000000
000000
000000
000000
000000
000000
000000
000000
000000
037000
03FC00
038C00
060C00
060C00
060C00
0C1800
0E3000
0FF000
1B8000
180000
180000
300000
300000
000000
ENDCHAR
STARTCHAR q
ENCODING 113
SWIDTH 458 0
DWIDTH 11 0
BBX 19 24 -1 -5
BITMAP
000000
000000
000000
000000
000000
000000
000000
000000
000000
007600
01FE00
018E00
060C00
060C00
060C00
0C1800
063800
07F800
03B000
003000
003000
006000
006000
000000
ENDCHAR
STARTCHAR r
ENCODING 114
SWIDTH 250 0
DWIDTH 6 0
BBX 14 24 -1 -5
BITMAP
0000
0000
0000
0000
0000
0000
0000
0000
0000
0360
03E0
0380
0600
0600
0600
0C00
0C00
0C00
1800
0000
0000
0000
0000
0000
ENDCHAR
STARTCHAR s
ENCODING 115
SWIDTH 375 0
DWIDTH 9 0
BBX 17 24 -1 -5
BITMAP
000000
000000
000000
000000
000000
000000
000000
000000
000000
00E000
01F000
031800
070000
03C000
00E000
006000
0C6000
07C000
070000
000000
000000
000000
000000
000000
ENDCHAR
STARTCHAR t
ENCODING 116
SWIDTH 166 0
DWIDTH 4 0
BBX 12 24 -1 -5
BITMAP
0000
0000
0000
0000
0000
0000
0180
0180
0180
0780
0780
0300
0600
0600
0600
0C00
0C00
0E00
0C00
0000
0000
0000
0000
0000
ENDCHAR
STARTCHAR u
ENCODING 117
SWIDTH 458 0
DWIDTH 11 0
BBX 19 24 -1 -5
BITMAP
000000
000000
000000
000000
000000
000000
000000
000000
000000
030600
030600
030600
060C00
060C00
060C00
0C1800
063800
07F800
03B000
000000
000000
000000
000000
000000
ENDCHAR
STARTCHAR v
ENCODING 118
SWIDTH 375 0
DWIDTH 9 0
BBX 17 24 -1 -5
BITMAP
000000
000000
000000
000000
000000
000000
000000
000000
000000
060C00
060C00
060C00
063000
063000
036000
06C000
07C000
038000
070000
000000
000000
000000
000000
000000
ENDCHAR
STARTCHAR w
ENCODING 119
SWIDTH 583 0
DWIDTH 14 0
BBX 22 24 -1 -5
BITMAP
000000
000000
000000
000000
000000
000000
000000
000000
000000
061860
061860
0318C0
067980
067980
03CF00
079E00
039C00
030C00
061800
000000
000000
000000
000000
000000
ENDCHAR
STARTCHAR x
ENCODING 120
SWIDTH 416 0
DWIDTH 10 0
BBX 18 24 -1 -5
BITMAP
000000
000000
000000
000000
000000
000000
000000
000000
000000
060600
070E00
039C00
03F000
01E000
01E000
07E000
0E7000
1C3800
303000
000000
000000
000000
000000
000000
ENDCHAR
STARTCHAR y
ENCODING 121
SWIDTH 375 0
DWIDTH 9 0
BBX 17 24 -1 -5
BITMAP
000000
000000
000000
000000
000000
000000
000000
000000
000000
060C00
060C00
060C00
063000
063000
036000
06C000
07C000
038000
070000
060000
060000
3C0000
380000
000000
ENDCHAR
STARTCHAR z
ENCODING 122
SWIDTH 375 0
DWIDTH 9 0
BBX 17 24 -1 -5
BITMAP
000000
000000
000000
000000
000000
000000
000000
000000
000000
07FC00
07FC00
001800
006000
00C000
018000
060000
0C0000
1FF000
3FE000
000000
000000
000000
000000
000000
ENDCHAR
STARTCHAR braceleft
ENCODING 123
SWIDTH 250 0
DWIDTH 6 0
BBX 14 24 -1 -5
BITMAP
0000
0000
0000
0000
0000
0018
0060
0060
0060
00C0
00C0
00C0
0300
0600
0600
0600
0300
0300
0600
0600
0600
0C00
0600
0000
ENDCHAR
STARTCHAR bar
ENCODING 124
SWIDTH 166 0
DWIDTH 4 0
BBX 12 24 -1 -5
BITMAP
0000
0000
0000
0000
0000
00C0
0180
0180
0180
0300
0300
0300
0600
0600
0600
0C00
0C00
0C00
1800
1800
1800
3000
3000
3000
ENDCHAR
STARTCHAR braceright
ENCODING 125
SWIDTH 250 0
DWIDTH 6 0
BBX 14 24 -1 -5
BITMAP
0000
0000
0000
0000
0000
0180
0180
0180
0180
0300
0300
0300
0300
0180
0180
0600
0C00
0C00
1800
1800
1800
3000
6000
0000
ENDCHAR
STARTCHAR asciitilde
ENCODING 126
SWIDTH 458 0
DWIDTH 11 0
BBX 19 24 -1 -5
BITMAP
000000
000000
000000
000000
000000
007180
01BB00
018E00
000000
000000
000000
000000
000000
000000
000000
000000
000000
000000
000000
000000
000000
000000
000000
000000
ENDCHAR
STARTCHAR C177
ENCODING -1
SWIDTH 250 0
DWIDTH 6 0
BBX 14 24 -1 -5
BITMAP
0000
0000
0000
0000
0000
00F0
01E0
01E0
01E0
03C0
03C0
03C0
0780
0780
0780
0F00
0F00
0F00
1E00
0000
0000
0000
0000
0000
ENDCHAR
STARTCHAR C200
ENCODING -1
SWIDTH 250 0
DWIDTH 6 0
BBX 14 24 -1 -5
BITMAP
0000
0000
0000
0000
0000
00F0
01E0
01E0
01E0
03C0
03C0
03C0
0780
0780
0780
0F00
0F00
0F00
1E00
0000
0000
0000
0000
0000
ENDCHAR
STARTCHAR C201
ENCODING -1
SWIDTH 250 0
DWIDTH 6 0
BBX 14 24 -1 -5
BITMAP
0000
0000
0000
0000
0000
00F0
01E0
01E0
01E0
03C0
03C0
03C0
0780
0780
0780
0F00
0F00
0F00
1E00
0000
0000
0000
0000
0000
ENDCHAR
STARTCHAR C202
ENCODING -1
SWIDTH 250 0
DWIDTH 6 0
BBX 14 24 -1 -5
BITMAP
0000
0000
0000
0000
0000
00F0
01E0
01E0
01E0
03C0
03C0
03C0
0780
0780
0780
0F00
0F00
0F00
1E00
0000
0000
0000
0000
0000
ENDCHAR
STARTCHAR C203
ENCODING -1
SWIDTH 250 0
DWIDTH 6 0
BBX 14 24 -1 -5
BITMAP
0000
0000
0000
0000
0000
00F0
01E0
01E0
01E0
03C0
03C0
03C0
0780
0780
0780
0F00
0F00
0F00
1E00
0000
0000
0000
0000
0000
ENDCHAR
STARTCHAR C204
ENCODING -1
SWIDTH 250 0
DWIDTH 6 0
BBX 14 24 -1 -5
BITMAP
0000
0000
0000
0000
0000
00F0
01E0
01E0
01E0
03C0
03C0
03C0
0780
0780
0780
0F00
0F00
0F00
1E00
0000
0000
0000
0000
0000
ENDCHAR
STARTCHAR C205
ENCODING -1
SWIDTH 250 0
DWIDTH 6 0
BBX 14 24 -1 -5
BITMAP
0000
0000
0000
0000
0000
00F0
01E0
01E0
01E0
03C0
03C0
03C0
0780
0780
0780
0F00
0F00
0F00
1E00
0000
0000
0000
0000
0000
ENDCHAR
STARTCHAR C206
ENCODING -1
SWIDTH 250 0
DWIDTH 6 0
BBX 14 24 -1 -5
BITMAP
0000
0000
0000
0000
0000
00F0
01E0
01E0
01E0
03C0
03C0
03C0
0780
0780
0780
0F00
0F00
0F00
1E00
0000
0000
0000
0000
0000
ENDCHAR
STARTCHAR C207
ENCODING -1
SWIDTH 250 0
DWIDTH 6 0
BBX 14 24 -1 -5
BITMAP
0000
0000
0000
0000
0000
00F0
01E0
01E0
01E0
03C0
03C0
03C0
0780
0780
0780
0F00
0F00
0F00
1E00
0000
0000
0000
0000
0000
ENDCHAR
STARTCHAR C210
ENCODING -1
SWIDTH 250 0
DWIDTH 6 0
BBX 14 24 -1 -5
BITMAP
0000
0000
0000
0000
0000
00F0
01E0
01E0
01E0
03C0
03C0
03C0
0780
0780
0780
0F00
0F00
0F00
1E00
0000
0000
0000
0000
0000
ENDCHAR
STARTCHAR C211
ENCODING -1
SWIDTH 250 0
DWIDTH 6 0
BBX 14 24 -1 -5
BITMAP
0000
0000
0000
0000
0000
00F0
01E0
01E0
01E0
03C0
03C0
03C0
0780
0780
0780
0F00
0F00
0F00
1E00
0000
0000
0000
0000
0000
ENDCHAR
STARTCHAR C212
ENCODING -1
SWIDTH 250 0
DWIDTH 6 0
BBX 14 24 -1 -5
BITMAP
0000
0000
0000
0000
0000
00F0
01E0
01E0
01E0
03C0
03C0
03C0
0780
0780
0780
0F00
0F00
0F00
1E00
0000
0000
0000
0000
0000
ENDCHAR
STARTCHAR C213
ENCODING -1
SWIDTH 250 0
DWIDTH 6 0
BBX 14 24 -1 -5
BITMAP
0000
0000
0000
0000
0000
00F0
01E0
01E0
01E0
03C0
03C0
03C0
0780
0780
0780
0F00
0F00
0F00
1E00
0000
0000
0000
0000
0000
ENDCHAR
STARTCHAR C214
ENCODING -1
SWIDTH 250 0
DWIDTH 6 0
BBX 14 24 -1 -5
BITMAP
0000
0000
0000
0000
0000
00F0
01E0
01E0
01E0
03C0
03C0
03C0
0780
0780
0780
0F00
0F00
0F00
1E00
0000
0000
0000
0000
0000
ENDCHAR
STARTCHAR C215
ENCODING -1
SWIDTH 250 0
DWIDTH 6 0
BBX 14 24 -1 -5
BITMAP
0000
0000
0000
0000
0000
00F0
01E0
01E0
01E0
03C0
03C0
03C0
0780
0780
0780
0F00
0F00
0F00
1E00
0000
0000
0000
0000
0000
ENDCHAR
STARTCHAR C216
ENCODING -1
SWIDTH 250 0
DWIDTH 6 0
BBX 14 24 -1 -5
BITMAP
0000
0000
0000
0000
0000
00F0
01E0
01E0
01E0
03C0
03C0
03C0
0780
0780
0780
0F00
0F00
0F00
1E00
0000
0000
0000
0000
0000
ENDCHAR
STARTCHAR C217
ENCODING -1
SWIDTH 250 0
DWIDTH 6 0
BBX 14 24 -1 -5
BITMAP
0000
0000
0000
0000
0000
00F0
01E0
01E0
01E0
03C0
03C0
03C0
0780
0780
0780
0F00
0F00
0F00
1E00
0000
0000
0000
0000
0000
ENDCHAR
STARTCHAR C220
ENCODING -1
SWIDTH 250 0
DWIDTH 6 0
BBX 14 24 -1 -5
BITMAP
0000
0000
0000
0000
0000
00F0
01E0
01E0
01E0
03C0
03C0
03C0
0780
0780
0780
0F00
0F00
0F00
1E00
0000
0000
0000
0000
0000
ENDCHAR
STARTCHAR C221
ENCODING -1
SWIDTH 208 0
DWIDTH 5 0
BBX 13 24 -1 -5
BITMAP
0000
0000
0000
0000
0000
0020
0080
00C0
00C0
0000
0000
0000
0000
0000
0000
0000
0000
0000
0000
0000
0000
0000
0000
0000
ENDCHAR
STARTCHAR C222
ENCODING -1
SWIDTH 208 0
DWIDTH 5 0
BBX 13 24 -1 -5
BITMAP
0000
0000
0000
0000
0000
00C0
0180
0080
0100
0000
0000
0000
0000
0000
0000
0000
0000
0000
0000
0000
0000
0000
0000
0000
ENDCHAR
STARTCHAR C223
ENCODING -1
SWIDTH 250 0
DWIDTH 6 0
BBX 14 24 -1 -5
BITMAP
0000
0000
0000
0000
0000
00F0
01E0
01E0
01E0
03C0
03C0
03C0
0780
0780
0780
0F00
0F00
0F00
1E00
0000
0000
0000
0000
0000
ENDCHAR
STARTCHAR C224
ENCODING -1
SWIDTH 250 0
DWIDTH 6 0
BBX 14 24 -1 -5
BITMAP
0000
0000
0000
0000
0000
00F0
01E0
01E0
01E0
03C0
03C0
03C0
0780
0780
0780
0F00
0F00
0F00
1E00
0000
0000
0000
0000
0000
ENDCHAR
STARTCHAR C225
ENCODING -1
SWIDTH 250 0
DWIDTH 6 0
BBX 14 24 -1 -5
BITMAP
0000
0000
0000
0000
0000
00F0
01E0
01E0
01E0
03C0
03C0
03C0
0780
0780
0780
0F00
0F00
0F00
1E00
0000
0000
0000
0000
0000
ENDCHAR
STARTCHAR C226
ENCODING -1
SWIDTH 250 0
DWIDTH 6 0
BBX 14 24 -1 -5
BITMAP
0000
0000
0000
0000
0000
00F0
01E0
01E0
01E0
03C0
03C0
03C0
0780
0780
0780
0F00
0F00
0F00
1E00
0000
0000
0000
0000
0000
ENDCHAR
STARTCHAR C227
ENCODING -1
SWIDTH 250 0
DWIDTH 6 0
BBX 14 24 -1 -5
BITMAP
0000
0000
0000
0000
0000
00F0
01E0
01E0
01E0
03C0
03C0
03C0
0780
0780
0780
0F00
0F00
0F00
1E00
0000
0000
0000
0000
0000
ENDCHAR
STARTCHAR C230
ENCODING -1
SWIDTH 250 0
DWIDTH 6 0
BBX 14 24 -1 -5
BITMAP
0000
0000
0000
0000
0000
00F0
01E0
01E0
01E0
03C0
03C0
03C0
0780
0780
0780
0F00
0F00
0F00
1E00
0000
0000
0000
0000
0000
ENDCHAR
STARTCHAR C231
ENCODING -1
SWIDTH 250 0
DWIDTH 6 0
BBX 14 24 -1 -5
BITMAP
0000
0000
0000
0000
0000
00F0
01E0
01E0
01E0
03C0
03C0
03C0
0780
0780
0780
0F00
0F00
0F00
1E00
0000
0000
0000
0000
0000
ENDCHAR
STARTCHAR C232
ENCODING -1
SWIDTH 250 0
DWIDTH 6 0
BBX 14 24 -1 -5
BITMAP
0000
0000
0000
0000
0000
00F0
01E0
01E0
01E0
03C0
03C0
03C0
0780
0780
0780
0F00
0F00
0F00
1E00
0000
0000
0000
0000
0000
ENDCHAR
STARTCHAR C233
ENCODING -1
SWIDTH 250 0
DWIDTH 6 0
BBX 14 24 -1 -5
BITMAP
0000
0000
0000
0000
0000
00F0
01E0
01E0
01E0
03C0
03C0
03C0
0780
0780
0780
0F00
0F00
0F00
1E00
0000
0000
0000
0000
0000
ENDCHAR
STARTCHAR C234
ENCODING 176
SWIDTH 250 0
DWIDTH 6 0
BBX 14 24 -1 -5
BITMAP
0000
0000
0000
0000
0000
00F0
01E0
01E0
01E0
03C0
03C0
03C0
0780
0780
0780
0F00
0F00
0F00
1E00
0000
0000
0000
0000
0000
ENDCHAR
STARTCHAR C235
ENCODING 178
SWIDTH 250 0
DWIDTH 6 0
BBX 14 24 -1 -5
BITMAP
0000
0000
0000
0000
0000
00F0
01E0
01E0
01E0
03C0
03C0
03C0
0780
0780
0780
0F00
0F00
0F00
1E00
0000
0000
0000
0000
0000
ENDCHAR
STARTCHAR C236
ENCODING -1
SWIDTH 250 0
DWIDTH 6 0
BBX 14 24 -1 -5
BITMAP
0000
0000
0000
0000
0000
00F0
01E0
01E0
01E0
03C0
03C0
03C0
0780
0780
0780
0F00
0F00
0F00
1E00
0000
0000
0000
0000
0000
ENDCHAR
STARTCHAR C237
ENCODING -1
SWIDTH 250 0
DWIDTH 6 0
BBX 14 24 -1 -5
BITMAP
0000
0000
0000
0000
0000
00F0
01E0
01E0
01E0
03C0
03C0
03C0
0780
0780
0780
0F00
0F00
0F00
1E00
0000
0000
0000
0000
0000
ENDCHAR
STARTCHAR C240
ENCODING 160
SWIDTH 208 0
DWIDTH 5 0
BBX 13 24 -1 -5
BITMAP
0000
0000
0000
0000
0000
0000
0000
0000
0000
0000
0000
0000
0000
0000
0000
0000
0000
0000
0000
0000
0000
0000
0000
0000
ENDCHAR
STARTCHAR exclamdown
ENCODING 161
SWIDTH 208 0
DWIDTH 5 0
BBX 13 24 -1 -5
BITMAP
0000
0000
0000
0000
0000
00C0
0180
0000
0000
0300
0300
0300
0600
0600
0600
0C00
0C00
0C00
1800
0000
0000
0000
0000
0000
ENDCHAR
STARTCHAR cent
ENCODING 162
SWIDTH 416 0
DWIDTH 10 0
BBX 18 24 -1 -5
BITMAP
000000
000000
000000
000000
000000
000000
000000
000400
000400
007800
01FC00
019C00
062000
066000
064000
0C8000
07B000
07F000
078000
040000
040000
000000
000000
000000
ENDCHAR
STARTCHAR sterling
ENCODING 163
SWIDTH 416 0
DWIDTH 10 0
BBX 18 24 -1 -5
BITMAP
000000
000000
000000
000000
000000
001E00
007E00
00C300
00C000
018000
018000
03F000
030000
018000
018000
030000
061800
0FF800
1DE000
000000
000000
000000
000000
000000
ENDCHAR
STARTCHAR currency
ENCODING 164
SWIDTH 416 0
DWIDTH 10 0
BBX 18 24 -1 -5
BITMAP
000000
000000
000000
000000
000000
000000
018300
01FF00
00FE00
018C00
018C00
018C00
03F800
07FC00
060C00
000000
000000
000000
000000
000000
000000
000000
000000
000000
ENDCHAR
STARTCHAR yen
ENCODING 165
SWIDTH 416 0
DWIDTH 10 0
BBX 18 24 -1 -5
BITMAP
000000
000000
000000
000000
000000
018180
030300
018600
018600
019800
03FC00
03FC00
01E000
00C000
07F800
0FF000
018000
018000
030000
000000
000000
000000
000000
000000
ENDCHAR
STARTCHAR brokenbar
ENCODING 166
SWIDTH 166 0
DWIDTH 4 0
BBX 12 24 -1 -5
BITMAP
0000
0000
0000
0000
0000
00C0
0180
0180
0180
0300
0300
0300
0600
0000
0000
0C00
0C00
0C00
1800
1800
1800
3000
3000
0000
ENDCHAR
STARTCHAR section
ENCODING 167
SWIDTH 416 0
DWIDTH 10 0
BBX 18 24 -1 -5
BITMAP
000000
000000
000000
000000
000000
003C00
00FC00
00CC00
00C000
03C000
036000
033000
033000
019800
00D800
00F000
006000
066000
0FC000
078000
000000
000000
000000
000000
ENDCHAR
STARTCHAR dieresis
ENCODING 168
SWIDTH 250 0
DWIDTH 6 0
BBX 14 24 -1 -5
BITMAP
0000
0000
0000
0000
0000
0198
0330
0000
0000
0000
0000
0000
0000
0000
0000
0000
0000
0000
0000
0000
0000
0000
0000
0000
ENDCHAR
STARTCHAR copyright
ENCODING 191
SWIDTH 583 0
DWIDTH 14 0
BBX 22 24 -1 -5
BITMAP
000000
000000
000000
000000
000000
001F00
00E380
0180C0
011E40
0666C0
04C040
04C040
098080
098080
0CCD80
08F200
0C0600
071C00
03E000
000000
000000
000000
000000
000000
ENDCHAR
STARTCHAR ordfeminine
ENCODING 170
SWIDTH 291 0
DWIDTH 7 0
BBX 15 24 -1 -5
BITMAP
0000
0000
0000
0000
0000
0078
0198
0078
00D8
0330
01F0
0000
07E0
0000
0000
0000
0000
0000
0000
0000
0000
0000
0000
0000
ENDCHAR
STARTCHAR guillemotleft
ENCODING 171
SWIDTH 416 0
DWIDTH 10 0
BBX 18 24 -1 -5
BITMAP
000000
000000
000000
000000
000000
000000
000000
000000
000000
000000
000000
000000
011000
033000
066000
066000
022000
000000
000000
000000
000000
000000
000000
000000
ENDCHAR
STARTCHAR logicalnot
ENCODING 172
SWIDTH 458 0
DWIDTH 11 0
BBX 19 24 -1 -5
BITMAP
000000
000000
000000
000000
000000
000000
000000
000000
000000
000000
000000
03FE00
07FC00
000C00
000C00
001800
000000
000000
000000
000000
000000
000000
000000
000000
ENDCHAR
STARTCHAR hyphen
ENCODING 173
SWIDTH 250 0
DWIDTH 6 0
BBX 14 24 -1 -5
BITMAP
0000
0000
0000
0000
0000
0000
0000
0000
0000
0000
0000
0000
0000
0FC0
0FC0
0000
0000
0000
0000
0000
0000
0000
0000
0000
ENDCHAR
STARTCHAR registered
ENCODING 174
SWIDTH 583 0
DWIDTH 14 0
BBX 22 24 -1 -5
BITMAP
000000
000000
000000
000000
000000
000F80
0071C0
00C060
00BF20
036360
026320
026320
04FC40
04C640
06C6C0
058D00
060300
038E00
01F000
000000
000000
000000
000000
000000
ENDCHAR
STARTCHAR macron
ENCODING 175
SWIDTH 416 0
DWIDTH 10 0
BBX 18 24 -1 -5
BITMAP
000000
000000
00FFC0
01FF80
000000
000000
000000
000000
000000
000000
000000
000000
000000
000000
000000
000000
000000
000000
000000
000000
000000
000000
000000
000000
ENDCHAR
STARTCHAR degree
ENCODING 156
SWIDTH 250 0
DWIDTH 6 0
BBX 14 24 -1 -5
BITMAP
0000
0000
0000
0000
0000
0070
01B0
0110
01B0
01C0
0000
0000
0000
0000
0000
0000
0000
0000
0000
0000
0000
0000
0000
0000
ENDCHAR
STARTCHAR plusminus
ENCODING 177
SWIDTH 458 0
DWIDTH 11 0
BBX 19 24 -1 -5
BITMAP
000000
000000
000000
000000
000000
000000
000000
000000
001800
003000
003000
01FE00
03FC00
006000
006000
00C000
000000
07F800
0FF000
000000
000000
000000
000000
000000
ENDCHAR
STARTCHAR twosuperior
ENCODING 157
SWIDTH 208 0
DWIDTH 5 0
BBX 13 24 -1 -5
BITMAP
0000
0000
0000
0000
0000
00E0
0360
0260
00C0
0300
0600
07C0
0000
0000
0000
0000
0000
0000
0000
0000
0000
0000
0000
0000
ENDCHAR
STARTCHAR threesuperior
ENCODING 179
SWIDTH 208 0
DWIDTH 5 0
BBX 13 24 -1 -5
BITMAP
0000
0000
0000
0000
0000
00E0
0360
0060
01C0
00C0
06C0
0380
0000
0000
0000
0000
0000
0000
0000
0000
0000
0000
0000
0000
ENDCHAR
STARTCHAR acute
ENCODING 180
SWIDTH 250 0
DWIDTH 6 0
BBX 14 24 -1 -5
BITMAP
0000
0000
0000
0000
0000
0070
0180
0100
0000
0000
0000
0000
0000
0000
0000
0000
0000
0000
0000
0000
0000
0000
0000
0000
ENDCHAR
STARTCHAR mu
ENCODING 181
SWIDTH 375 0
DWIDTH 9 0
BBX 17 24 -1 -5
BITMAP
000000
000000
000000
000000
000000
000000
000000
000000
000000
030C00
030C00
030C00
061800
061800
061800
0C3000
0E7000
0FF000
1B6000
180000
180000
300000
300000
000000
ENDCHAR
STARTCHAR paragraph
ENCODING 182
SWIDTH 416 0
DWIDTH 10 0
BBX 18 24 -1 -5
BITMAP
000000
000000
000000
000000
000000
001F00
00F400
00F400
01F400
03E800
03E800
01E800
03D000
00D000
005000
00A000
00A000
00A000
014000
014000
014000
000000
000000
000000
ENDCHAR
STARTCHAR periodcentered
ENCODING 183
SWIDTH 208 0
DWIDTH 5 0
BBX 13 24 -1 -5
BITMAP
0000
0000
0000
0000
0000
0000
0000
0000
0000
0000
0180
0180
0000
0000
0000
0000
0000
0000
0000
0000
0000
0000
0000
0000
ENDCHAR
STARTCHAR cedilla
ENCODING 184
SWIDTH 250 0
DWIDTH 6 0
BBX 14 24 -1 -5
BITMAP
0000
0000
0000
0000
0000
0000
0000
0000
0000
0000
0000
0000
0000
0000
0000
0000
0000
0000
0000
0800
0E00
0C00
7800
0000
ENDCHAR
STARTCHAR onesuperior
ENCODING 185
SWIDTH 208 0
DWIDTH 5 0
BBX 13 24 -1 -5
BITMAP
0000
0000
0000
0000
0000
0060
01C0
03C0
00C0
0180
0180
0180
0000
0000
0000
0000
0000
0000
0000
0000
0000
0000
0000
0000
ENDCHAR
STARTCHAR ordmasculine
ENCODING 186
SWIDTH 291 0
DWIDTH 7 0
BBX 15 24 -1 -5
BITMAP
0000
0000
0000
0000
0000
0078
0198
0198
0198
0330
01E0
0000
07E0
0000
0000
0000
0000
0000
0000
0000
0000
0000
0000
0000
ENDCHAR
STARTCHAR guillemotright
ENCODING 187
SWIDTH 416 0
DWIDTH 10 0
BBX 18 24 -1 -5
BITMAP
000000
000000
000000
000000
000000
000000
000000
000000
000000
000000
000000
000000
022000
033000
019800
066000
044000
000000
000000
000000
000000
000000
000000
000000
ENDCHAR
STARTCHAR onequarter
ENCODING 188
SWIDTH 625 0
DWIDTH 15 0
BBX 23 24 -1 -5
BITMAP
000000
000000
000000
000000
000000
003030
00E0C0
01E0C0
006180
00C600
00C600
00CC00
003180
006380
006580
019300
031F00
030300
0C0600
000000
000000
000000
000000
000000
ENDCHAR
STARTCHAR onehalf
ENCODING 189
SWIDTH 625 0
DWIDTH 15 0
BBX 23 24 -1 -5
BITMAP
000000
000000
000000
000000
000000
003030
00E0C0
01E0C0
006180
00C600
00C600
00CC00
003700
006D80
006980
018600
030C00
031800
0C3E00
000000
000000
000000
000000
000000
ENDCHAR
STARTCHAR threequarters
ENCODING 190
SWIDTH 625 0
DWIDTH 15 0
BBX 23 24 -1 -5
BITMAP
000000
000000
000000
000000
000000
007030
01B0C0
0030C0
00E180
006600
036600
01CC00
003180
006380
006580
019300
031F00
030300
0C0600
000000
000000
000000
000000
000000
ENDCHAR
STARTCHAR questiondown
ENCODING 169
SWIDTH 416 0
DWIDTH 10 0
BBX 18 24 -1 -5
BITMAP
000000
000000
000000
000000
000000
001800
003000
000000
003000
006000
00C000
01C000
070000
060000
0C1800
183000
0C6000
0FE000
070000
000000
000000
000000
000000
000000
ENDCHAR
STARTCHAR cyr-A
ENCODING 225
SWIDTH 541 0
DWIDTH 13 0
BBX 21 24 -1 -5
BITMAP
000000
000000
000000
000000
000000
000E00
001C00
003600
003600
00C600
00C600
00C600
030600
03FE00
07FF00
0C0600
0C0600
180300
300600
000000
000000
000000
000000
000000
ENDCHAR
STARTCHAR cyr-Be
ENCODING 226
SWIDTH 500 0
DWIDTH 12 0
BBX 20 24 -1 -5
BITMAP
000000
000000
000000
000000
000000
00FF80
01FF00
018000
018000
030000
030000
03FE00
07FC00
060E00
060600
0C0C00
0C1C00
0FF800
1FE000
000000
000000
000000
000000
000000
ENDCHAR
STARTCHAR cyr-Ve
ENCODING 247
SWIDTH 500 0
DWIDTH 12 0
BBX 20 24 -1 -5
BITMAP
000000
000000
000000
000000
000000
00FF00
01FF00
018380
018180
030300
030700
03FE00
07FC00
060E00
060600
0C0C00
0C1C00
0FF800
1FE000
000000
000000
000000
000000
000000
ENDCHAR
STARTCHAR cyr-Ghe
ENCODING 231
SWIDTH 541 0
DWIDTH 13 0
BBX 21 24 -1 -5
BITMAP
000000
000000
000000
000000
000000
00FFE0
01FFC0
018000
018000
030000
030000
030000
060000
060000
060000
0C0000
0C0000
0C0000
180000
000000
000000
000000
000000
000000
ENDCHAR
STARTCHAR cyr-De
ENCODING 228
SWIDTH 625 0
DWIDTH 15 0
BBX 23 24 -1 -5
BITMAP
000000
000000
000000
000000
000000
001FE0
003FC0
0030C0
0030C0
006180
006180
006180
00C300
00C300
00C300
018600
030600
0FFF80
1FFF00
180300
180300
000000
000000
000000
ENDCHAR
STARTCHAR cyr-Ie
ENCODING 229
SWIDTH 541 0
DWIDTH 13 0
BBX 21 24 -1 -5
BITMAP
000000
000000
000000
000000
000000
00FFE0
01FFC0
018000
018000
030000
030000
03FF00
07FE00
060000
060000
0C0000
0C0000
0FFE00
1FFC00
000000
000000
000000
000000
000000
ENDCHAR
STARTCHAR cyr-Zhe
ENCODING 246
SWIDTH 750 0
DWIDTH 18 0
BBX 26 24 -1 -5
BITMAP
00000000
00000000
00000000
00000000
00000000
00C18300
01C30E00
00E31C00
00733800
0076E000
003FC000
001F8000
007F8000
00EDC000
01CCE000
0718E000
0E187000
1C183800
30303000
00000000
00000000
00000000
00000000
00000000
ENDCHAR
STARTCHAR cyr-Ze
ENCODING 250
SWIDTH 458 0
DWIDTH 11 0
BBX 19 24 -1 -5
BITMAP
000000
000000
000000
000000
000000
003E00
00FE00
018300
000300
000600
000C00
003800
007000
001800
000C00
001800
0C1800
07F000
07C000
000000
000000
000000
000000
000000
ENDCHAR
STARTCHAR cyr-I
ENCODING 233
SWIDTH 583 0
DWIDTH 14 0
BBX 22 24 -1 -5
BITMAP
000000
000000
000000
000000
000000
00C030
018060
0180E0
0181E0
0307C0
030EC0
031CC0
067180
06E180
07C180
0F0300
0E0300
0C0300
180600
000000
000000
000000
000000
000000
ENDCHAR
STARTCHAR cyr-I-short
ENCODING 234
SWIDTH 583 0
DWIDTH 14 0
BBX 22 24 -1 -5
BITMAP
000000
000000
001860
001F80
000F00
00C030
018060
0180E0
0181E0
0307C0
030EC0
031CC0
067180
06E180
07C180
0F0300
0E0300
0C0300
180600
000000
000000
000000
000000
000000
ENDCHAR
STARTCHAR cyr-Ka
ENCODING 235
SWIDTH 500 0
DWIDTH 12 0
BBX 20 24 -1 -5
BITMAP
000000
000000
000000
000000
000000
00C1C0
018700
018E00
019C00
037000
03E000
03C000
07C000
06E000
067000
0C7000
0C3800
0C1C00
181C00
000000
000000
000000
000000
000000
ENDCHAR
STARTCHAR cyr-El
ENCODING 236
SWIDTH 541 0
DWIDTH 13 0
BBX 21 24 -1 -5
BITMAP
000000
000000
000000
000000
000000
003FE0
007FC0
0060C0
0060C0
00C180
00C180
00C180
018300
018300
018300
030600
030600
070600
1C0C00
000000
000000
000000
000000
000000
ENDCHAR
STARTCHAR cyr-Em
ENCODING 237
SWIDTH 666 0
DWIDTH 16 0
BBX 24 24 -1 -5
BITMAP
000000
000000
000000
000000
000000
00C00C
018018
01C038
01C038
03C0F0
03C0F0
0361B0
06C360
066660
066660
0C78C0
0C78C0
0C30C0
186180
000000
000000
000000
000000
000000
ENDCHAR
STARTCHAR cyr-En
ENCODING 238
SWIDTH 583 0
DWIDTH 14 0
BBX 22 24 -1 -5
BITMAP
000000
000000
000000
000000
000000
00C030
018060
018060
018060
0300C0
0300C0
03FFC0
07FF80
060180
060180
0C0300
0C0300
0C0300
180600
000000
000000
000000
000000
000000
ENDCHAR
STARTCHAR cyr-O
ENCODING 239
SWIDTH 625 0
DWIDTH 15 0
BBX 23 24 -1 -5
BITMAP
000000
000000
000000
000000
000000
000F80
007FC0
00E0E0
00C060
030060
030060
030060
0600C0
0600C0
0600C0
060300
070700
03FE00
01F000
000000
000000
000000
000000
000000
ENDCHAR
STARTCHAR cyr-Pe
ENCODING 240
SWIDTH 583 0
DWIDTH 14 0
BBX 22 24 -1 -5
BITMAP
000000
000000
000000
000000
000000
00FFF0
01FFE0
018060
018060
0300C0
0300C0
0300C0
060180
060180
060180
0C0300
0C0300
0C0300
180600
000000
000000
000000
000000
000000
ENDCHAR
STARTCHAR cyr-Er
ENCODING 242
SWIDTH 500 0
DWIDTH 12 0
BBX 20 24 -1 -5
BITMAP
000000
000000
000000
000000
000000
00FF00
01FF80
018180
0180C0
030180
030180
030300
07FE00
07F800
060000
0C0000
0C0000
0C0000
180000
000000
000000
000000
000000
000000
ENDCHAR
STARTCHAR cyr-Es
ENCODING 243
SWIDTH 541 0
DWIDTH 13 0
BBX 21 24 -1 -5
BITMAP
000000
000000
000000
000000
000000
000F80
007FC0
00E0E0
00C060
030000
030000
030000
060000
060000
060000
060300
070700
03FE00
01F000
000000
000000
000000
000000
000000
ENDCHAR
STARTCHAR cyr-Te
ENCODING 244
SWIDTH 500 0
DWIDTH 12 0
BBX 20 24 -1 -5
BITMAP
000000
000000
000000
000000
000000
01FFE0
03FFC0
001800
001800
003000
003000
003000
006000
006000
006000
00C000
00C000
00C000
018000
000000
000000
000000
000000
000000
ENDCHAR
STARTCHAR cyr-U
ENCODING 245
SWIDTH 500 0
DWIDTH 12 0
BBX 20 24 -1 -5
BITMAP
000000
000000
000000
000000
000000
018060
0300C0
018180
018180
018600
018600
00CC00
019800
00F000
007000
00C000
01C000
078000
0E0000
000000
000000
000000
000000
000000
ENDCHAR
STARTCHAR cyr-Ef
ENCODING 230
SWIDTH 666 0
DWIDTH 16 0
BBX 24 24 -1 -5
BITMAP
000000
000000
000000
000000
000000
000FC0
007FE0
00E670
00C630
030C30
030C30
030C30
061860
061860
0318C0
073380
03FF00
00FC00
006000
000000
000000
000000
000000
000000
ENDCHAR
STARTCHAR cyr-Kha
ENCODING 232
SWIDTH 583 0
DWIDTH 14 0
BBX 22 24 -1 -5
BITMAP
000000
000000
000000
000000
000000
018018
038070
01C0E0
00E1C0
00E700
007E00
003C00
007800
00FC00
01CE00
070E00
0E0700
1C0380
300300
000000
000000
000000
000000
000000
ENDCHAR
STARTCHAR cyr-Tse
ENCODING 227
SWIDTH 583 0
DWIDTH 14 0
BBX 22 24 -1 -5
BITMAP
000000
000000
000000
000000
000000
00C060
0180C0
0180C0
0180C0
030180
030180
030180
060300
060300
060300
0C0600
0C0600
0FFE00
1FFE00
000600
000600
000000
000000
000000
ENDCHAR
STARTCHAR cyr-Che
ENCODING 254
SWIDTH 583 0
DWIDTH 14 0
BBX 22 24 -1 -5
BITMAP
000000
000000
000000
000000
000000
00C030
018060
018060
018060
0300C0
0380C0
01FFC0
01FF80
000180
000180
000300
000300
000300
000600
000000
000000
000000
000000
000000
ENDCHAR
STARTCHAR cyr-Sha
ENCODING 251
SWIDTH 750 0
DWIDTH 18 0
BBX 26 24 -1 -5
BITMAP
00000000
00000000
00000000
00000000
00000000
00C18300
01830600
01830600
01830600
03060C00
03060C00
03060C00
060C1800
060C1800
060C1800
0C183000
0C183000
0FFFF000
1FFFE000
00000000
00000000
00000000
00000000
00000000
ENDCHAR
STARTCHAR cyr-Shcha
ENCODING 253
SWIDTH 791 0
DWIDTH 19 0
BBX 27 24 -1 -5
BITMAP
00000000
00000000
00000000
00000000
00000000
00C18300
01830600
01830600
01830600
03060C00
03060C00
03060C00
060C1800
060C1800
060C1800
0C183000
0C183000
0FFFF800
1FFFF000
00003000
00003000
00000000
00000000
00000000
ENDCHAR
STARTCHAR cyr-Ier
ENCODING 255
SWIDTH 625 0
DWIDTH 15 0
BBX 23 24 -1 -5
BITMAP
000000
000000
000000
000000
000000
00F000
01E000
006000
006000
00C000
00FF80
00FFC0
0181C0
0180C0
0180C0
030180
030380
03FF00
07FC00
000000
000000
000000
000000
000000
ENDCHAR
STARTCHAR cyr-Iery
ENCODING 249
SWIDTH 666 0
DWIDTH 16 0
BBX 24 24 -1 -5
BITMAP
000000
000000
000000
000000
000000
00C00C
018018
018018
018018
030030
03FE30
03FF30
060760
060360
060360
0C06C0
0C0EC0
0FFCC0
1FF180
000000
000000
000000
000000
000000
ENDCHAR
STARTCHAR cyr-Ierik
ENCODING 248
SWIDTH 541 0
DWIDTH 13 0
BBX 21 24 -1 -5
BITMAP
000000
000000
000000
000000
000000
00C000
018000
018000
018000
030000
03FE00
03FF00
060700
060300
060300
0C0600
0C0E00
0FFC00
1FF000
000000
000000
000000
000000
000000
ENDCHAR
STARTCHAR cyr-E-rev
ENCODING 252
SWIDTH 541 0
DWIDTH 13 0
BBX 21 24 -1 -5
BITMAP
000000
000000
000000
000000
000000
003F00
00FF00
01C380
0001C0
000180
000180
003F80
007F00
000300
000300
000C00
0E1C00
07F800
07E000
000000
000000
000000
000000
000000
ENDCHAR
STARTCHAR cyr-Yu
ENCODING 224
SWIDTH 666 0
DWIDTH 16 0
BBX 24 24 -1 -5
BITMAP
000000
000000
000000
000000
000000
00C1E0
018FF0
019C38
019818
036018
036018
03E018
07C030
06C030
06C030
0CC0C0
0CE1C0
0C7F80
183C00
000000
000000
000000
000000
000000
ENDCHAR
STARTCHAR cyr-Ya
ENCODING 241
SWIDTH 541 0
DWIDTH 13 0
BBX 21 24 -1 -5
BITMAP
000000
000000
000000
000000
000000
003FE0
00FFC0
01C0C0
0180C0
030180
030180
038180
03FF00
01FF00
003B00
00E600
01C600
038600
0E0C00
1C0C00
000000
000000
000000
000000
ENDCHAR
STARTCHAR cyr-a
ENCODING 193
SWIDTH 416 0
DWIDTH 10 0
BBX 18 24 -1 -5
BITMAP
000000
000000
000000
000000
000000
000000
000000
000000
000000
00F000
01F800
039C00
001800
00F800
039800
0C3000
0C7000
0FF800
0F3000
000000
000000
000000
000000
000000
ENDCHAR
STARTCHAR cyr-be
ENCODING 194
SWIDTH 458 0
DWIDTH 11 0
BBX 19 24 -1 -5
BITMAP
000000
000000
000000
000000
000000
000300
007E00
00FC00
01C000
037800
03FC00
038E00
060C00
060C00
060C00
0C1800
0E3800
07F000
07C000
000000
000000
000000
000000
000000
ENDCHAR
STARTCHAR cyr-ve
ENCODING 215
SWIDTH 416 0
DWIDTH 10 0
BBX 18 24 -1 -5
BITMAP
000000
000000
000000
000000
000000
000000
000000
000000
000000
03F800
03F800
030C00
061800
07F000
07F000
0C3000
0C3000
0FF000
1FC000
000000
000000
000000
000000
000000
ENDCHAR
STARTCHAR cyr-ghe
ENCODING 199
SWIDTH 375 0
DWIDTH 9 0
BBX 17 24 -1 -5
BITMAP
000000
000000
000000
000000
000000
000000
000000
000000
000000
03FC00
03FC00
030000
060000
060000
060000
0C0000
0C0000
0C0000
180000
000000
000000
000000
000000
000000
ENDCHAR
STARTCHAR cyr-de
ENCODING 196
SWIDTH 541 0
DWIDTH 13 0
BBX 21 24 -1 -5
BITMAP
000000
000000
000000
000000
000000
000000
000000
000000
000000
007F00
007F00
006300
00C600
00C600
00C600
018C00
030C00
0FFF00
1FFE00
180600
180600
000000
000000
000000
ENDCHAR
STARTCHAR cyr-ie
ENCODING 197
SWIDTH 458 0
DWIDTH 11 0
BBX 19 24 -1 -5
BITMAP
000000
000000
000000
000000
000000
000000
000000
000000
000000
007000
01FC00
018C00
060C00
07FC00
07FC00
0C0000
061800
07F000
038000
000000
000000
000000
000000
000000
ENDCHAR
STARTCHAR cyr-zhe
ENCODING 214
SWIDTH 666 0
DWIDTH 16 0
BBX 24 24 -1 -5
BITMAP
000000
000000
000000
000000
000000
000000
000000
000000
000000
070C38
038C70
01CCE0
01DB80
00FF00
00FF00
03B700
073380
0E31C0
3861C0
3060C0
000000
000000
000000
000000
ENDCHAR
STARTCHAR cyr-z
ENCODING 218
SWIDTH 416 0
DWIDTH 10 0
BBX 18 24 -1 -5
BITMAP
000000
000000
000000
000000
000000
000000
000000
000000
000000
01F800
03FC00
030C00
001800
00F000
00F800
003000
0C3000
0FF000
0FC000
000000
000000
000000
000000
000000
ENDCHAR
STARTCHAR cyr-i
ENCODING 201
SWIDTH 458 0
DWIDTH 11 0
BBX 19 24 -1 -5
BITMAP
000000
000000
000000
000000
000000
000000
000000
000000
000000
030600
030600
030E00
063C00
066C00
06CC00
0F1800
0E1800
0C1800
183000
000000
000000
000000
000000
000000
ENDCHAR
STARTCHAR cyr-i-short
ENCODING 202
SWIDTH 458 0
DWIDTH 11 0
BBX 19 24 -1 -5
BITMAP
000000
000000
000000
000000
000000
000000
000000
006C00
003800
030600
030600
030E00
063C00
066C00
06CC00
0F1800
0E1800
0C1800
183000
000000
000000
000000
000000
000000
ENDCHAR
STARTCHAR cyr-ka
ENCODING 203
SWIDTH 375 0
DWIDTH 9 0
BBX 17 24 -1 -5
BITMAP
000000
000000
000000
000000
000000
000000
000000
000000
000000
030C00
031800
033000
06C000
078000
07C000
0CC000
0C6000
0C3000
182000
000000
000000
000000
000000
000000
ENDCHAR
STARTCHAR cyr-el
ENCODING 204
SWIDTH 458 0
DWIDTH 11 0
BBX 19 24 -1 -5
BITMAP
000000
000000
000000
000000
000000
000000
000000
000000
000000
00FE00
00FE00
00C600
018C00
018C00
018C00
031800
031800
071800
1C3000
000000
000000
000000
000000
000000
ENDCHAR
STARTCHAR cyr-em
ENCODING 205
SWIDTH 583 0
DWIDTH 14 0
BBX 22 24 -1 -5
BITMAP
000000
000000
000000
000000
000000
000000
000000
000000
000000
0300C0
0381C0
03C3C0
06CD80
067980
063180
0C0300
0C0300
0C0300
180600
000000
000000
000000
000000
000000
ENDCHAR
STARTCHAR cyr-en
ENCODING 206
SWIDTH 458 0
DWIDTH 11 0
BBX 19 24 -1 -5
BITMAP
000000
000000
000000
000000
000000
000000
000000
000000
000000
030600
030600
030600
060C00
07FC00
07FC00
0C1800
0C1800
0C1800
183000
000000
000000
000000
000000
000000
ENDCHAR
STARTCHAR cyr-o
ENCODING 207
SWIDTH 458 0
DWIDTH 11 0
BBX 19 24 -1 -5
BITMAP
000000
000000
000000
000000
000000
000000
000000
000000
000000
007000
01FC00
018C00
060C00
060C00
060C00
0C1800
063000
07F000
038000
000000
000000
000000
000000
000000
ENDCHAR
STARTCHAR cyr-pe
ENCODING 208
SWIDTH 458 0
DWIDTH 11 0
BBX 19 24 -1 -5
BITMAP
000000
000000
000000
000000
000000
000000
000000
000000
000000
03FE00
03FE00
030600
060C00
060C00
060C00
0C1800
0C1800
0C1800
183000
000000
000000
000000
000000
000000
ENDCHAR
STARTCHAR cyr-er
ENCODING 210
SWIDTH 458 0
DWIDTH 11 0
BBX 19 24 -1 -5
BITMAP
000000
000000
000000
000000
000000
000000
000000
000000
000000
037000
03FC00
038C00
060C00
060C00
060C00
0C1800
0E3000
0FF000
1B8000
180000
180000
300000
300000
000000
ENDCHAR
STARTCHAR cyr-es
ENCODING 211
SWIDTH 416 0
DWIDTH 10 0
BBX 18 24 -1 -5
BITMAP
000000
000000
000000
000000
000000
000000
000000
000000
000000
007000
01FC00
018C00
060C00
060000
060000
0C1800
063000
07F000
038000
000000
000000
000000
000000
000000
ENDCHAR
STARTCHAR cyr-te
ENCODING 212
SWIDTH 500 0
DWIDTH 12 0
BBX 20 24 -1 -5
BITMAP
000000
000000
000000
000000
000000
000000
000000
000000
000000
03FF00
03FF00
003000
006000
006000
006000
00C000
00C000
00C000
018000
018000
000000
000000
000000
000000
ENDCHAR
STARTCHAR cyr-u
ENCODING 213
SWIDTH 375 0
DWIDTH 9 0
BBX 17 24 -1 -5
BITMAP
000000
000000
000000
000000
000000
000000
000000
000000
000000
060C00
060C00
060C00
063000
063000
036000
06C000
07C000
038000
070000
060000
060000
3C0000
380000
000000
ENDCHAR
STARTCHAR cyr-ef
ENCODING 198
SWIDTH 583 0
DWIDTH 14 0
BBX 22 24 -1 -5
BITMAP
000000
000000
000000
000000
000000
000000
000000
000000
000C00
007E00
01FF80
019980
063180
063180
063180
0C6300
066600
07FE00
03F000
00C000
00C000
018000
018000
018000
ENDCHAR
STARTCHAR cyr-kha
ENCODING 200
SWIDTH 416 0
DWIDTH 10 0
BBX 18 24 -1 -5
BITMAP
000000
000000
000000
000000
000000
000000
000000
000000
000000
060600
070E00
039C00
03F000
01E000
01E000
07E000
0E7000
1C3800
303000
000000
000000
000000
000000
000000
ENDCHAR
STARTCHAR cyr-tse
ENCODING 195
SWIDTH 500 0
DWIDTH 12 0
BBX 20 24 -1 -5
BITMAP
000000
000000
000000
000000
000000
000000
000000
000000
000000
030600
030600
030600
060C00
060C00
060C00
0C1800
0C1800
0FFC00
1FF800
001800
001800
000000
000000
000000
ENDCHAR
STARTCHAR cyr-che
ENCODING 222
SWIDTH 458 0
DWIDTH 11 0
BBX 19 24 -1 -5
BITMAP
000000
000000
000000
000000
000000
000000
000000
000000
000000
030600
030600
030600
060C00
07FC00
03FC00
001800
001800
001800
003000
000000
000000
000000
000000
000000
ENDCHAR
STARTCHAR cyr-sha
ENCODING 219
SWIDTH 583 0
DWIDTH 14 0
BBX 22 24 -1 -5
BITMAP
000000
000000
000000
000000
000000
000000
000000
000000
000000
0318C0
0318C0
0318C0
063180
063180
063180
0C6300
0C6300
0FFF00
1FFE00
000000
000000
000000
000000
000000
ENDCHAR
STARTCHAR cyr-shcha
ENCODING 221
SWIDTH 625 0
DWIDTH 15 0
BBX 23 24 -1 -5
BITMAP
000000
000000
000000
000000
000000
000000
000000
000000
000000
0318C0
0318C0
0318C0
063180
063180
063180
0C6300
0C6300
0FFF80
1FFF00
000300
000300
000000
000000
000000
ENDCHAR
STARTCHAR cyr-ier
ENCODING 223
SWIDTH 541 0
DWIDTH 13 0
BBX 21 24 -1 -5
BITMAP
000000
000000
000000
000000
000000
000000
000000
000000
000000
03C000
03C000
00C000
01FE00
01FF00
018300
030600
030600
03FE00
07F800
000000
000000
000000
000000
000000
ENDCHAR
STARTCHAR cyr-iery
ENCODING 217
SWIDTH 583 0
DWIDTH 14 0
BBX 22 24 -1 -5
BITMAP
000000
000000
000000
000000
000000
000000
000000
000000
000000
0300C0
0300C0
0300C0
07F980
07FD80
060D80
0C1B00
0C1B00
0FFB00
1FE600
000000
000000
000000
000000
000000
ENDCHAR
STARTCHAR cyr-ierik
ENCODING 216
SWIDTH 458 0
DWIDTH 11 0
BBX 19 24 -1 -5
BITMAP
000000
000000
000000
000000
000000
000000
000000
000000
000000
030000
030000
030000
07F800
07FC00
060C00
0C1800
0C1800
0FF800
1FE000
000000
000000
000000
000000
000000
ENDCHAR
STARTCHAR cyr-e-rev
ENCODING 220
SWIDTH 416 0
DWIDTH 10 0
BBX 18 24 -1 -5
BITMAP
000000
000000
000000
000000
000000
000000
000000
000000
000000
00F000
01F800
031C00
001800
00F800
00F800
003000
0C7000
07E000
078000
000000
000000
000000
000000
000000
ENDCHAR
STARTCHAR cyr-yu
ENCODING 192
SWIDTH 583 0
DWIDTH 14 0
BBX 22 24 -1 -5
BITMAP
000000
000000
000000
000000
000000
000000
000000
000000
000000
030E00
033F80
033180
06C180
07C180
07C180
0D8300
0CC600
0CFE00
187000
000000
000000
000000
000000
000000
ENDCHAR
STARTCHAR cyr-ya
ENCODING 209
SWIDTH 458 0
DWIDTH 11 0
BBX 19 24 -1 -5
BITMAP
000000
000000
000000
000000
000000
000000
000000
000000
000000
01FE00
03FE00
030600
060C00
060C00
07FC00
07F800
039800
071800
1C3000
000000
000000
000000
000000
000000
ENDCHAR
ENDFONT
